#N canvas 989 106 660 760 10;
#X declare -lib mrpeach;
#X obj -88 362 import mrpeach;
#X msg -89 463 disconnect;
#X obj -94 623 udpsend;
#X msg -90 432 connect 192.168.1.66 9000;
#X obj -85 588 packOSC;
#X msg -85 168 send /yamaha 1;
#X obj -67 16 bng 15 250 50 0 empty empty empty 17 7 0 10 -262144 -1
-1;
#X obj 95 26 bng 15 250 50 0 empty empty empty 17 7 0 10 -262144 -1
-1;
#X obj -22 22 bng 15 250 50 0 empty empty empty 17 7 0 10 -262144 -1
-1;
#X obj -22 46 bng 15 250 50 0 empty empty empty 17 7 0 10 -262144 -1
-1;
#X msg -87 199 send /yamaha 2;
#X obj -127 125 bng 15 250 50 0 empty empty empty 17 7 0 10 -262144
-1 -1;
#X text -67 -1 Power;
#X text -25 2 Volume;
#X msg -87 235 send /yamaha 3;
#X msg 139 171 send /yamaha 4;
#X msg 80 206 send /yamaha 5;
#X msg 72 240 send /yamaha 6;
#X msg 46 269 send /yamaha 7;
#X msg 48 303 send /yamaha 8;
#X msg -81 275 send /yamaha 9;
#X obj 95 50 bng 15 250 50 0 empty empty empty 17 7 0 10 -262144 -1
-1;
#X obj 96 76 bng 15 250 50 0 empty empty empty 17 7 0 10 -262144 -1
-1;
#X obj 95 101 bng 15 250 50 0 empty empty empty 17 7 0 10 -262144 -1
-1;
#X text 43 51 Radio;
#X text 34 98 Computer;
#X text 59 2 Input;
#X obj 140 51 bng 15 250 50 0 empty empty empty 17 7 0 10 -262144 -1
-1;
#X text 157 50 Change Station;
#X obj -62 70 bng 15 250 50 0 empty empty empty 17 7 0 10 -262144 -1
-1;
#X text -87 51 Night Mode;
#X msg -90 395 connect 127.0.0.1 9000;
#X text 35 27 Apple TV;
#X text 37 75 Xbox/DVD;
#X msg 166 414 send /pin/2 1;
#X msg 201 348 connect 127.0.0.1 9001;
#X connect 1 0 2 0;
#X connect 3 0 2 0;
#X connect 4 0 2 0;
#X connect 5 0 4 0;
#X connect 6 0 5 0;
#X connect 7 0 16 0;
#X connect 8 0 10 0;
#X connect 9 0 14 0;
#X connect 10 0 4 0;
#X connect 11 0 31 0;
#X connect 14 0 4 0;
#X connect 15 0 4 0;
#X connect 16 0 4 0;
#X connect 17 0 4 0;
#X connect 18 0 4 0;
#X connect 19 0 4 0;
#X connect 20 0 4 0;
#X connect 21 0 17 0;
#X connect 22 0 18 0;
#X connect 23 0 19 0;
#X connect 27 0 15 0;
#X connect 29 0 20 0;
#X connect 31 0 2 0;
#X connect 34 0 4 0;
#X connect 35 0 2 0;
